<?xml version="1.0" standalone="no"?>
<!DOCTYPE svg PUBLIC "-//W3C//DTD SVG 20010904//EN"
 "http://www.w3.org/TR/2001/REC-SVG-20010904/DTD/svg10.dtd">
<svg version="1.0" xmlns="http://www.w3.org/2000/svg"
 width="268.000000pt" height="100.000000pt" viewBox="0 0 268.000000 100.000000"
 preserveAspectRatio="xMidYMid meet">

<g transform="translate(0.000000,100.000000) scale(0.100000,-0.100000)"
fill="#000000" stroke="none">
<path d="M385 956 c-40 -17 -283 -270 -301 -312 -18 -43 -18 -116 1 -160 16
-38 224 -278 256 -295 14 -7 9 4 -15 35 -19 25 -37 62 -41 83 -4 27 -23 58
-65 106 -74 84 -82 98 -82 152 -1 59 21 90 155 223 122 120 138 128 196 97 48
-25 259 -254 277 -302 16 -40 15 -44 -5 -85 -12 -26 -68 -91 -134 -156 -101
-99 -118 -112 -148 -112 -19 0 -43 6 -54 14 -11 7 -32 16 -47 20 -19 4 -28 13
-28 26 0 11 5 20 10 20 6 0 10 5 10 10 0 6 -3 9 -7 9 -36 -6 -47 29 -13 38 20
5 28 23 10 23 -5 0 -10 9 -10 20 0 16 7 20 34 20 43 0 54 15 30 41 -25 27 -31
25 -63 -27 -52 -81 -48 -158 12 -222 48 -51 128 -68 185 -38 35 18 244 241
265 283 19 35 22 118 8 156 -15 38 -276 312 -315 331 -41 19 -80 20 -121 2z"/>
<path d="M870 780 c0 -93 1 -100 20 -100 17 0 20 7 20 45 l0 45 45 0 45 0 0
-45 c0 -38 3 -45 20 -45 19 0 20 7 20 100 0 93 -1 100 -20 100 -17 0 -20 -7
-20 -40 l0 -40 -45 0 -45 0 0 40 c0 33 -3 40 -20 40 -19 0 -20 -7 -20 -100z"/>
<path d="M1083 856 c-24 -21 -27 -31 -27 -81 0 -50 3 -60 27 -81 39 -33 105
-33 144 0 25 22 28 31 27 81 0 50 -4 61 -28 81 -38 33 -104 33 -143 0z m121
-28 c22 -31 20 -84 -4 -108 -43 -43 -110 -10 -110 53 0 48 24 77 65 77 24 0
39 -7 49 -22z"/>
<path d="M1286 864 c-9 -8 -16 -26 -16 -38 0 -22 27 -56 46 -56 5 0 26 -5 47
-11 31 -8 38 -14 35 -32 -4 -29 -61 -36 -88 -12 -10 9 -27 15 -37 13 -16 -3
-15 -7 9 -31 38 -38 108 -39 143 -1 24 26 25 26 25 5 0 -14 6 -21 20 -21 16 0
20 7 20 35 0 34 1 35 40 35 31 0 47 6 65 26 l25 27 0 -62 c0 -54 2 -61 20 -61
18 0 20 7 20 85 l0 85 35 0 35 0 0 -85 c0 -78 2 -85 20 -85 18 0 20 7 20 85
l0 85 35 0 c24 0 35 5 35 15 0 12 -19 15 -110 15 l-110 0 0 -27 0 -28 -19 24
c-16 21 -30 26 -85 29 l-66 4 0 -73 c0 -72 -1 -73 -18 -52 -9 12 -37 27 -62
33 -54 14 -71 26 -63 46 7 19 72 19 79 -1 8 -19 44 -20 44 -2 0 43 -109 66
-144 31z m285 -30 c20 -24 -1 -48 -45 -52 -35 -3 -36 -2 -36 32 0 34 2 36 34
36 18 0 39 -7 47 -16z"/>
<path d="M1850 858 c-5 -13 -22 -58 -39 -100 l-29 -78 23 0 c14 0 25 7 28 20
4 16 14 20 50 20 36 0 46 -4 50 -20 3 -12 14 -20 27 -20 17 0 21 4 15 18 -4 9
-21 54 -37 100 -27 71 -34 82 -55 82 -15 0 -27 -8 -33 -22z m49 -59 c16 -46
14 -49 -20 -49 -24 0 -30 3 -25 16 3 9 9 27 12 40 8 33 20 30 33 -7z"/>
<path d="M1990 780 l0 -100 75 0 c60 0 75 3 75 15 0 12 -13 15 -55 15 l-55 0
0 85 c0 78 -2 85 -20 85 -19 0 -20 -7 -20 -100z"/>
<path d="M404 735 c-20 -31 -15 -53 18 -78 25 -19 28 -19 52 -3 18 11 26 25
26 46 0 58 -65 82 -96 35z"/>
<path d="M275 690 c-9 -15 3 -32 113 -149 56 -60 102 -112 102 -115 0 -3 -27
-6 -59 -6 -33 0 -63 -4 -66 -10 -4 -6 21 -10 69 -10 65 0 77 -3 86 -20 10 -19
8 -20 -80 -20 -53 0 -90 -4 -90 -10 0 -6 37 -10 90 -10 83 0 90 -1 90 -20 0
-18 -7 -20 -79 -20 -44 0 -83 -5 -86 -10 -4 -6 22 -10 70 -10 48 0 74 -4 70
-10 -12 -20 6 -9 45 26 68 62 52 101 -112 274 -114 121 -147 145 -163 120z"/>
<path d="M530 635 l-64 -65 20 -20 20 -21 62 70 c41 46 60 75 56 85 -10 27
-27 18 -94 -49z"/>
<path d="M1321 609 c-13 -11 -22 -22 -19 -25 9 -9 58 19 58 33 0 18 -11 16
-39 -8z"/>
<path d="M1271 531 c-48 -48 -51 -182 -5 -228 23 -23 64 -30 99 -17 33 13 49
71 46 171 -1 47 -44 93 -87 93 -20 0 -42 -8 -53 -19z m84 -35 c26 -19 33 -117
11 -151 -19 -29 -51 -32 -78 -8 -13 12 -18 31 -18 72 0 86 36 123 85 87z"/>
<path d="M900 415 c0 -118 1 -125 20 -125 17 0 20 7 20 45 0 43 2 45 28 45 49
0 72 25 72 79 0 63 -20 81 -88 81 l-52 0 0 -125z m110 65 c16 -30 -4 -60 -40
-60 -28 0 -30 2 -30 40 0 38 2 40 30 40 19 0 33 -7 40 -20z"/>
<path d="M1060 415 c0 -112 2 -125 18 -125 14 0 17 9 17 47 0 45 2 48 28 51
39 5 57 -14 57 -59 0 -28 4 -39 15 -39 11 0 15 12 15 48 0 26 -5 53 -10 58 -7
7 -6 20 4 39 15 29 12 68 -7 93 -6 7 -34 12 -73 12 l-64 0 0 -125z m115 50 c0
-28 -2 -30 -40 -30 -38 0 -40 2 -43 33 l-3 33 43 -3 c40 -3 43 -5 43 -33z"/>
<path d="M1520 535 c0 -6 27 -116 51 -207 7 -26 15 -38 27 -38 14 0 23 20 41
93 42 169 41 157 21 157 -13 0 -21 -17 -35 -82 -9 -46 -20 -87 -23 -93 -4 -5
-15 31 -27 80 -15 67 -25 91 -38 93 -9 2 -17 1 -17 -3z"/>
<path d="M1700 415 c0 -104 2 -125 15 -125 13 0 15 21 15 125 0 104 -2 125
-15 125 -13 0 -15 -21 -15 -125z"/>
<path d="M1760 415 l0 -125 54 0 c47 0 57 4 75 26 42 53 35 176 -12 209 -12 8
-42 15 -69 15 l-48 0 0 -125z m110 66 c5 -11 10 -42 10 -70 0 -58 -23 -91 -65
-91 -25 0 -25 1 -25 90 l0 90 35 0 c24 0 37 -6 45 -19z"/>
<path d="M1971 422 c-36 -138 -35 -132 -16 -132 8 0 17 11 21 25 5 22 12 25
50 25 40 0 44 -2 44 -25 0 -19 5 -25 21 -25 17 0 20 4 15 23 -3 12 -18 68 -33
125 -24 90 -29 102 -49 102 -19 0 -25 -13 -53 -118z m78 -24 c1 -13 -7 -18
-25 -18 -26 0 -26 1 -19 48 4 26 10 52 13 57 6 10 30 -56 31 -87z"/>
<path d="M1430 405 c0 -10 11 -15 35 -15 24 0 35 5 35 15 0 10 -11 15 -35 15
-24 0 -35 -5 -35 -15z"/>
<path d="M450 95 c0 -9 7 -18 15 -21 20 -8 19 -21 -2 -27 -14 -4 -12 -5 5 -6
25 -1 31 26 7 35 -20 8 -19 21 3 27 13 4 11 5 -5 6 -15 1 -23 -5 -23 -14z"/>
<path d="M513 80 c2 -30 5 -35 27 -35 21 0 25 5 26 30 1 30 1 30 -3 2 -6 -38
-35 -32 -45 8 -6 29 -6 29 -5 -5z"/>
<path d="M601 79 c-13 -39 -14 -42 -1 -34 6 3 10 15 10 26 0 10 5 19 10 19 6
0 10 -9 10 -19 0 -11 5 -23 10 -26 13 -8 12 -5 -1 34 -14 39 -24 39 -38 0z"/>
<path d="M704 98 c-4 -6 0 -16 9 -23 22 -16 21 -22 0 -28 -14 -4 -13 -5 4 -6
30 -1 38 16 13 31 -25 16 -25 25 -2 31 15 4 15 5 0 6 -9 0 -20 -4 -24 -11z"/>
<path d="M773 75 c-13 -42 -7 -47 9 -7 l11 27 6 -24 c4 -14 12 -26 19 -29 8
-2 8 5 -2 29 -19 45 -30 46 -43 4z"/>
<path d="M840 88 c1 -56 54 -68 56 -13 1 30 1 30 -3 2 -6 -38 -38 -33 -38 6 1
15 -3 27 -7 27 -4 0 -8 -10 -8 -22z"/>
<path d="M930 76 c0 -29 4 -36 19 -36 10 0 24 7 32 16 16 20 1 48 -30 52 -18
3 -21 -1 -21 -32z m43 12 c6 -19 -3 -38 -19 -38 -8 0 -14 10 -14 25 0 26 25
35 33 13z"/>
<path d="M1010 75 c0 -30 3 -35 23 -34 16 1 18 2 5 6 -21 5 -23 19 -5 26 10 4
10 6 0 6 -19 1 -16 19 5 24 13 4 11 5 -5 6 -20 1 -23 -4 -23 -34z"/>
<path d="M1100 75 c0 -30 3 -35 23 -34 16 1 18 2 5 6 -21 5 -23 19 -5 26 10 4
10 6 0 6 -19 1 -16 19 5 24 13 4 11 5 -5 6 -20 1 -23 -4 -23 -34z"/>
<path d="M1161 73 c1 -37 2 -37 8 -8 l7 30 7 -28 c7 -25 27 -30 27 -6 0 6 -4
8 -9 5 -5 -3 -12 5 -15 19 -10 38 -26 30 -25 -12z"/>
<path d="M1217 103 c-10 -10 -8 -25 2 -18 5 3 12 -7 14 -22 3 -23 4 -21 6 10
1 35 -7 46 -22 30z"/>
<path d="M1290 88 c1 -56 54 -68 56 -13 1 30 1 30 -3 2 -6 -38 -38 -33 -38 6
1 15 -3 27 -7 27 -4 0 -8 -10 -8 -22z"/>
<path d="M1373 73 c-1 -36 -1 -37 6 -8 l8 30 11 -28 c11 -26 32 -30 32 -6 0 6
-4 7 -10 4 -5 -3 -12 6 -16 20 -9 38 -30 30 -31 -12z"/>
<path d="M1437 103 c-12 -11 -8 -25 4 -17 8 5 10 -1 7 -20 -3 -14 -1 -26 3
-26 5 0 9 16 9 35 0 33 -8 43 -23 28z"/>
<path d="M1514 98 c-4 -6 0 -16 9 -23 22 -16 21 -22 0 -28 -14 -4 -12 -5 5 -6
25 -1 31 26 7 35 -20 8 -19 21 3 27 15 4 15 5 0 6 -9 0 -20 -4 -24 -11z"/>
<path d="M1580 95 c-6 -8 -10 -22 -8 -32 5 -25 61 -25 66 0 4 21 -14 47 -33
47 -7 0 -18 -7 -25 -15z m48 -18 c4 -20 -25 -34 -40 -19 -15 15 -1 44 19 40
10 -2 19 -11 21 -21z"/>
<path d="M1692 78 c-2 -34 1 -38 21 -37 15 1 17 3 5 6 -10 2 -18 17 -21 36 -4
31 -4 31 -5 -5z"/>
<path d="M1752 78 c-2 -34 0 -38 23 -38 23 0 25 4 23 38 -1 36 -1 36 -5 5 -3
-19 -10 -33 -18 -33 -8 0 -15 14 -18 33 -4 31 -4 31 -5 -5z"/>
<path d="M1829 94 c-17 -21 0 -49 32 -49 25 0 34 25 11 33 -7 2 -10 -2 -6 -12
4 -10 1 -16 -9 -16 -17 0 -28 22 -19 37 4 6 16 13 27 16 19 4 19 5 -1 6 -12 0
-27 -6 -35 -15z"/>
<path d="M1913 75 c-13 -42 -7 -47 9 -7 l11 27 6 -24 c4 -14 12 -26 19 -29 8
-2 8 5 -2 29 -19 45 -30 46 -43 4z"/>
<path d="M1988 75 c-2 -19 0 -35 4 -35 4 0 8 14 8 30 0 17 5 30 11 30 6 0 9
-7 5 -15 -7 -19 3 -45 16 -45 7 0 7 5 0 13 -6 7 -9 23 -5 35 4 17 1 22 -15 22
-15 0 -21 -8 -24 -35z"/>
<path d="M2062 85 c0 -16 2 -22 5 -12 2 9 2 23 0 30 -3 6 -5 -1 -5 -18z"/>
</g>
</svg>
